<mxfile host="app.diagrams.net" modified="2025-08-03T00:00:00.000Z" agent="5.0" etag="module_deps_v1" version="24.6.4" type="device">
  <diagram name="Module Dependencies" id="module-deps">
    <mxGraphModel dx="1422" dy="754" grid="1" gridSize="10" guides="1" tooltips="1" connect="1" arrows="1" fold="1" page="1" pageScale="1" pageWidth="827" pageHeight="1169" math="0" shadow="0">
      <root>
        <mxCell id="0" />
        <mxCell id="1" parent="0" />
        
        <!-- Title -->
        <mxCell id="title" value="Module Dependency Architecture" style="text;html=1;strokeColor=none;fillColor=none;align=center;verticalAlign=middle;whiteSpace=wrap;rounded=0;fontSize=18;fontStyle=1" vertex="1" parent="1">
          <mxGeometry x="280" y="20" width="280" height="30" as="geometry" />
        </mxCell>
        
        <!-- Core Modules (Level 1) -->
        <mxCell id="util" value="util::*" style="rounded=1;whiteSpace=wrap;html=1;fillColor=#f0f0f0;strokeColor=#666666;fontStyle=1" vertex="1" parent="1">
          <mxGeometry x="100" y="80" width="80" height="40" as="geometry" />
        </mxCell>
        
        <mxCell id="config" value="config::*" style="rounded=1;whiteSpace=wrap;html=1;fillColor=#f0f0f0;strokeColor=#666666;fontStyle=1" vertex="1" parent="1">
          <mxGeometry x="200" y="80" width="80" height="40" as="geometry" />
        </mxCell>
        
        <mxCell id="assets" value="assets::*" style="rounded=1;whiteSpace=wrap;html=1;fillColor=#f0f0f0;strokeColor=#666666;fontStyle=1" vertex="1" parent="1">
          <mxGeometry x="300" y="80" width="80" height="40" as="geometry" />
        </mxCell>
        
        <mxCell id="save" value="save::*" style="rounded=1;whiteSpace=wrap;html=1;fillColor=#f0f0f0;strokeColor=#666666;fontStyle=1" vertex="1" parent="1">
          <mxGeometry x="400" y="80" width="80" height="40" as="geometry" />
        </mxCell>
        
        <mxCell id="audio" value="audio::*" style="rounded=1;whiteSpace=wrap;html=1;fillColor=#f0f0f0;strokeColor=#666666;fontStyle=1" vertex="1" parent="1">
          <mxGeometry x="500" y="80" width="80" height="40" as="geometry" />
        </mxCell>
        
        <!-- Low-level Platform (Level 2) -->
        <mxCell id="input" value="input::" style="rounded=1;whiteSpace=wrap;html=1;fillColor=#e6f3ff;strokeColor=#4d9fff;fontStyle=1" vertex="1" parent="1">
          <mxGeometry x="100" y="160" width="80" height="40" as="geometry" />
        </mxCell>
        
        <mxCell id="window" value="glfw_window::" style="rounded=1;whiteSpace=wrap;html=1;fillColor=#e6f3ff;strokeColor=#4d9fff;fontStyle=1" vertex="1" parent="1">
          <mxGeometry x="200" y="160" width="100" height="40" as="geometry" />
        </mxCell>
        
        <!-- Vulkan Layer (Level 3) -->
        <mxCell id="vulkan_resources" value="render::vulkan::&#xa;resources::" style="rounded=1;whiteSpace=wrap;html=1;fillColor=#f8cecc;strokeColor=#b85450;fontStyle=1" vertex="1" parent="1">
          <mxGeometry x="150" y="240" width="100" height="50" as="geometry" />
        </mxCell>
        
        <mxCell id="vulkan_pipeline" value="render::vulkan::&#xa;pipeline::" style="rounded=1;whiteSpace=wrap;html=1;fillColor=#f8cecc;strokeColor=#b85450;fontStyle=1" vertex="1" parent="1">
          <mxGeometry x="270" y="240" width="100" height="50" as="geometry" />
        </mxCell>
        
        <mxCell id="vulkan_context" value="render::vulkan::&#xa;context::" style="rounded=1;whiteSpace=wrap;html=1;fillColor=#f8cecc;strokeColor=#b85450;fontStyle=1" vertex="1" parent="1">
          <mxGeometry x="390" y="240" width="100" height="50" as="geometry" />
        </mxCell>
        
        <!-- Rendering Layer (Level 4) -->
        <mxCell id="render_core" value="render::" style="rounded=1;whiteSpace=wrap;html=1;fillColor=#fff2cc;strokeColor=#d6b656;fontStyle=1" vertex="1" parent="1">
          <mxGeometry x="200" y="320" width="80" height="40" as="geometry" />
        </mxCell>
        
        <mxCell id="render_scene" value="render::scene::" style="rounded=1;whiteSpace=wrap;html=1;fillColor=#fff2cc;strokeColor=#d6b656;fontStyle=1" vertex="1" parent="1">
          <mxGeometry x="300" y="320" width="90" height="40" as="geometry" />
        </mxCell>
        
        <mxCell id="render_lighting" value="render::lighting::" style="rounded=1;whiteSpace=wrap;html=1;fillColor=#fff2cc;strokeColor=#d6b656;fontStyle=1" vertex="1" parent="1">
          <mxGeometry x="410" y="320" width="100" height="40" as="geometry" />
        </mxCell>
        
        <!-- ECS Layer (Level 5) -->
        <mxCell id="ecs" value="ecs::" style="rounded=1;whiteSpace=wrap;html=1;fillColor=#d5e8d4;strokeColor=#82b366;fontStyle=1" vertex="1" parent="1">
          <mxGeometry x="300" y="400" width="80" height="40" as="geometry" />
        </mxCell>
        
        <!-- Game Logic (Level 6) -->
        <mxCell id="game" value="game::" style="rounded=1;whiteSpace=wrap;html=1;fillColor=#e1d5e7;strokeColor=#9673a6;fontStyle=1" vertex="1" parent="1">
          <mxGeometry x="200" y="480" width="80" height="40" as="geometry" />
        </mxCell>
        
        <!-- UI/Menu Layer (Level 6) -->
        <mxCell id="menu" value="menu::" style="rounded=1;whiteSpace=wrap;html=1;fillColor=#e1d5e7;strokeColor=#9673a6;fontStyle=1" vertex="1" parent="1">
          <mxGeometry x="400" y="480" width="80" height="40" as="geometry" />
        </mxCell>
        
        <!-- Application Layer (Level 7) -->
        <mxCell id="application" value="application::" style="rounded=1;whiteSpace=wrap;html=1;fillColor=#fce5cd;strokeColor=#ff9900;fontStyle=1;fontSize=12" vertex="1" parent="1">
          <mxGeometry x="300" y="560" width="100" height="50" as="geometry" />
        </mxCell>
        
        <!-- Dependencies (arrows pointing upward - from dependency to dependent) -->
        
        <!-- Level 1 to Level 2 -->
        <mxCell id="dep1" style="edgeStyle=orthogonalEdgeStyle;rounded=0;orthogonalLoop=1;jettySize=auto;html=1;strokeWidth=1;fillColor=#e6f3ff;strokeColor=#4d9fff" edge="1" parent="1" source="util" target="input">
          <mxGeometry relative="1" as="geometry" />
        </mxCell>
        
        <mxCell id="dep2" style="edgeStyle=orthogonalEdgeStyle;rounded=0;orthogonalLoop=1;jettySize=auto;html=1;strokeWidth=1;fillColor=#e6f3ff;strokeColor=#4d9fff" edge="1" parent="1" source="config" target="window">
          <mxGeometry relative="1" as="geometry" />
        </mxCell>
        
        <!-- Level 2 to Level 3 -->
        <mxCell id="dep3" style="edgeStyle=orthogonalEdgeStyle;rounded=0;orthogonalLoop=1;jettySize=auto;html=1;strokeWidth=1;fillColor=#f8cecc;strokeColor=#b85450" edge="1" parent="1" source="window" target="vulkan_resources">
          <mxGeometry relative="1" as="geometry" />
        </mxCell>
        
        <mxCell id="dep4" style="edgeStyle=orthogonalEdgeStyle;rounded=0;orthogonalLoop=1;jettySize=auto;html=1;strokeWidth=1;fillColor=#f8cecc;strokeColor=#b85450" edge="1" parent="1" source="window" target="vulkan_pipeline">
          <mxGeometry relative="1" as="geometry" />
        </mxCell>
        
        <mxCell id="dep5" style="edgeStyle=orthogonalEdgeStyle;rounded=0;orthogonalLoop=1;jettySize=auto;html=1;strokeWidth=1;fillColor=#f8cecc;strokeColor=#b85450" edge="1" parent="1" source="window" target="vulkan_context">
          <mxGeometry relative="1" as="geometry" />
        </mxCell>
        
        <!-- Level 1 to Level 3 (assets) -->
        <mxCell id="dep6" style="edgeStyle=orthogonalEdgeStyle;rounded=0;orthogonalLoop=1;jettySize=auto;html=1;strokeWidth=1;fillColor=#f8cecc;strokeColor=#b85450" edge="1" parent="1" source="assets" target="vulkan_resources">
          <mxGeometry relative="1" as="geometry" />
        </mxCell>
        
        <!-- Level 3 to Level 4 -->
        <mxCell id="dep7" style="edgeStyle=orthogonalEdgeStyle;rounded=0;orthogonalLoop=1;jettySize=auto;html=1;strokeWidth=1;fillColor=#fff2cc;strokeColor=#d6b656" edge="1" parent="1" source="vulkan_resources" target="render_core">
          <mxGeometry relative="1" as="geometry" />
        </mxCell>
        
        <mxCell id="dep8" style="edgeStyle=orthogonalEdgeStyle;rounded=0;orthogonalLoop=1;jettySize=auto;html=1;strokeWidth=1;fillColor=#fff2cc;strokeColor=#d6b656" edge="1" parent="1" source="vulkan_pipeline" target="render_scene">
          <mxGeometry relative="1" as="geometry" />
        </mxCell>
        
        <mxCell id="dep9" style="edgeStyle=orthogonalEdgeStyle;rounded=0;orthogonalLoop=1;jettySize=auto;html=1;strokeWidth=1;fillColor=#fff2cc;strokeColor=#d6b656" edge="1" parent="1" source="vulkan_context" target="render_lighting">
          <mxGeometry relative="1" as="geometry" />
        </mxCell>
        
        <!-- Level 4 to Level 5 -->
        <mxCell id="dep10" style="edgeStyle=orthogonalEdgeStyle;rounded=0;orthogonalLoop=1;jettySize=auto;html=1;strokeWidth=1;fillColor=#d5e8d4;strokeColor=#82b366" edge="1" parent="1" source="render_scene" target="ecs">
          <mxGeometry relative="1" as="geometry" />
        </mxCell>
        
        <!-- Level 5 to Level 6 -->
        <mxCell id="dep11" style="edgeStyle=orthogonalEdgeStyle;rounded=0;orthogonalLoop=1;jettySize=auto;html=1;strokeWidth=1;fillColor=#e1d5e7;strokeColor=#9673a6" edge="1" parent="1" source="ecs" target="game">
          <mxGeometry relative="1" as="geometry" />
        </mxCell>
        
        <mxCell id="dep12" style="edgeStyle=orthogonalEdgeStyle;rounded=0;orthogonalLoop=1;jettySize=auto;html=1;strokeWidth=1;fillColor=#e1d5e7;strokeColor=#9673a6" edge="1" parent="1" source="ecs" target="menu">
          <mxGeometry relative="1" as="geometry" />
        </mxCell>
        
        <!-- Level 6 to Level 7 -->
        <mxCell id="dep13" style="edgeStyle=orthogonalEdgeStyle;rounded=0;orthogonalLoop=1;jettySize=auto;html=1;strokeWidth=1;fillColor=#fce5cd;strokeColor=#ff9900" edge="1" parent="1" source="game" target="application">
          <mxGeometry relative="1" as="geometry" />
        </mxCell>
        
        <mxCell id="dep14" style="edgeStyle=orthogonalEdgeStyle;rounded=0;orthogonalLoop=1;jettySize=auto;html=1;strokeWidth=1;fillColor=#fce5cd;strokeColor=#ff9900" edge="1" parent="1" source="menu" target="application">
          <mxGeometry relative="1" as="geometry" />
        </mxCell>
        
        <!-- Cross-dependencies (special cases) -->
        <mxCell id="cross1" style="edgeStyle=orthogonalEdgeStyle;rounded=0;orthogonalLoop=1;jettySize=auto;html=1;strokeWidth=1;strokeColor=#666666;dashed=1" edge="1" parent="1" source="input" target="ecs">
          <mxGeometry relative="1" as="geometry">
            <Array as="points">
              <mxPoint x="140" y="300" />
              <mxPoint x="340" y="300" />
            </Array>
          </mxGeometry>
        </mxCell>
        
        <mxCell id="cross2" style="edgeStyle=orthogonalEdgeStyle;rounded=0;orthogonalLoop=1;jettySize=auto;html=1;strokeWidth=1;strokeColor=#666666;dashed=1" edge="1" parent="1" source="audio" target="game">
          <mxGeometry relative="1" as="geometry">
            <Array as="points">
              <mxPoint x="540" y="360" />
              <mxPoint x="240" y="360" />
            </Array>
          </mxGeometry>
        </mxCell>
        
        <mxCell id="cross3" style="edgeStyle=orthogonalEdgeStyle;rounded=0;orthogonalLoop=1;jettySize=auto;html=1;strokeWidth=1;strokeColor=#666666;dashed=1" edge="1" parent="1" source="save" target="menu">
          <mxGeometry relative="1" as="geometry">
            <Array as="points">
              <mxPoint x="440" y="360" />
              <mxPoint x="440" y="360" />
            </Array>
          </mxGeometry>
        </mxCell>
        
        <!-- Dependency Legend -->
        <mxCell id="legend_title" value="Dependency Types:" style="text;html=1;strokeColor=none;fillColor=none;align=left;verticalAlign=middle;whiteSpace=wrap;rounded=0;fontSize=12;fontStyle=1" vertex="1" parent="1">
          <mxGeometry x="580" y="160" width="120" height="20" as="geometry" />
        </mxCell>
        
        <mxCell id="legend1" style="edgeStyle=orthogonalEdgeStyle;rounded=0;orthogonalLoop=1;jettySize=auto;html=1;strokeWidth=2;fillColor=#666666;strokeColor=#666666" edge="1" parent="1">
          <mxGeometry x="580" y="190" width="40" height="10" as="geometry">
            <mxPoint x="580" y="190" as="sourcePoint" />
            <mxPoint x="620" y="190" as="targetPoint" />
          </mxGeometry>
        </mxCell>
        <mxCell id="legend1_label" value="Direct Dependency" style="text;html=1;strokeColor=none;fillColor=none;align=left;verticalAlign=middle;whiteSpace=wrap;rounded=0;fontSize=10" vertex="1" parent="1">
          <mxGeometry x="630" y="185" width="100" height="15" as="geometry" />
        </mxCell>
        
        <mxCell id="legend2" style="edgeStyle=orthogonalEdgeStyle;rounded=0;orthogonalLoop=1;jettySize=auto;html=1;strokeWidth=1;strokeColor=#666666;dashed=1" edge="1" parent="1">
          <mxGeometry x="580" y="210" width="40" height="10" as="geometry">
            <mxPoint x="580" y="210" as="sourcePoint" />
            <mxPoint x="620" y="210" as="targetPoint" />
          </mxGeometry>
        </mxCell>
        <mxCell id="legend2_label" value="Cross Dependency" style="text;html=1;strokeColor=none;fillColor=none;align=left;verticalAlign=middle;whiteSpace=wrap;rounded=0;fontSize=10" vertex="1" parent="1">
          <mxGeometry x="630" y="205" width="100" height="15" as="geometry" />
        </mxCell>
        
        <!-- Dependency Rules -->
        <mxCell id="rules" value="Dependency Rules:&#xa;• Higher levels depend on lower&#xa;• No circular dependencies&#xa;• Cross-deps only when necessary&#xa;• Interface-based communication&#xa;• Minimal coupling" style="text;html=1;strokeColor=#d6b656;fillColor=#fff2cc;align=left;verticalAlign=top;whiteSpace=wrap;rounded=1;fontSize=10" vertex="1" parent="1">
          <mxGeometry x="580" y="240" width="180" height="120" as="geometry" />
        </mxCell>
        
        <!-- Layer Labels -->
        <mxCell id="layer1" value="Core/Utilities" style="text;html=1;strokeColor=none;fillColor=none;align=right;verticalAlign=middle;whiteSpace=wrap;rounded=0;fontSize=9;fontStyle=2;color=#666666" vertex="1" parent="1">
          <mxGeometry x="20" y="95" width="70" height="15" as="geometry" />
        </mxCell>
        
        <mxCell id="layer2" value="Platform" style="text;html=1;strokeColor=none;fillColor=none;align=right;verticalAlign=middle;whiteSpace=wrap;rounded=0;fontSize=9;fontStyle=2;color=#666666" vertex="1" parent="1">
          <mxGeometry x="20" y="175" width="70" height="15" as="geometry" />
        </mxCell>
        
        <mxCell id="layer3" value="Vulkan" style="text;html=1;strokeColor=none;fillColor=none;align=right;verticalAlign=middle;whiteSpace=wrap;rounded=0;fontSize=9;fontStyle=2;color=#666666" vertex="1" parent="1">
          <mxGeometry x="20" y="260" width="70" height="15" as="geometry" />
        </mxCell>
        
        <mxCell id="layer4" value="Rendering" style="text;html=1;strokeColor=none;fillColor=none;align=right;verticalAlign=middle;whiteSpace=wrap;rounded=0;fontSize=9;fontStyle=2;color=#666666" vertex="1" parent="1">
          <mxGeometry x="20" y="335" width="70" height="15" as="geometry" />
        </mxCell>
        
        <mxCell id="layer5" value="ECS" style="text;html=1;strokeColor=none;fillColor=none;align=right;verticalAlign=middle;whiteSpace=wrap;rounded=0;fontSize=9;fontStyle=2;color=#666666" vertex="1" parent="1">
          <mxGeometry x="20" y="415" width="70" height="15" as="geometry" />
        </mxCell>
        
        <mxCell id="layer6" value="Game Logic" style="text;html=1;strokeColor=none;fillColor=none;align=right;verticalAlign=middle;whiteSpace=wrap;rounded=0;fontSize=9;fontStyle=2;color=#666666" vertex="1" parent="1">
          <mxGeometry x="20" y="495" width="70" height="15" as="geometry" />
        </mxCell>
        
        <mxCell id="layer7" value="Application" style="text;html=1;strokeColor=none;fillColor=none;align=right;verticalAlign=middle;whiteSpace=wrap;rounded=0;fontSize=9;fontStyle=2;color=#666666" vertex="1" parent="1">
          <mxGeometry x="20" y="580" width="70" height="15" as="geometry" />
        </mxCell>
      </root>
    </mxGraphModel>
  </diagram>
</mxfile>
